<svg xmlns="http://www.w3.org/2000/svg" viewBox="0 0 812.2 181.2">
  <style>
    .st0{fill:none}.st3{fill:#329967}
  </style>
  <path d="M69.5 32.9c2.2 0 4.3-.7 6.2-2.2 1.9-1.5 3.4-3.4 4.5-5.9 1.1-2.5 1.6-5.2 1.6-8.1 0-2-.6-3.6-1.7-4.7s-2.8-1.7-4.9-1.7c-2.3 0-4.5.7-6.4 2.2-1.9 1.5-3.5 3.5-4.7 6.1-1.2 2.6-1.7 5.2-1.7 7.9 0 4.3 2.4 6.4 7.1 6.4zM28.3 18.2c1.3-1 2-2.3 2-3.9 0-1-.4-1.9-1.3-2.5s-2-.9-3.5-.9h-2.1l-2.5 8.9h2.2c2.1-.1 3.9-.6 5.2-1.6zm207.6-4.5c0-1.1-.4-1.9-1.2-2.5-.8-.6-2-.9-3.5-.9h-1.9l-2.5 8.8h1.8c2.2 0 4-.5 5.3-1.4 1.3-1 2-2.3 2-4zm144.8 19.5c1.1 0 2.3-.5 3.4-1.6 1.1-1 2-2.4 2.7-4.1.7-1.7 1-3.4 1-5 0-2.5-1-3.8-3-3.8-1.2 0-2.3.5-3.3 1.5s-1.9 2.3-2.5 4c-.6 1.7-.9 3.4-.9 5.2 0 1.1.2 2 .7 2.7.3.8 1 1.1 1.9 1.1zm-61-2.7c2-1.2 3.6-3 4.7-5.2 1.1-2.3 1.7-4.9 1.7-7.8 0-2.2-.6-3.9-1.9-5-1.3-1.1-3-1.7-5.3-1.7h-2.5l-6 21.5h2.4c2.5.1 4.8-.5 6.9-1.8z" class="st0"/>
  <path d="M18.4 28.1h3c7 0 12.5-1.3 16.5-3.8s6-6 6-10.4c0-3.7-1.6-6.5-4.9-8.5-3.2-2-7.9-3-14-3H12L1.2 40.9h13.7l3.5-12.8zm5-17.2h2.1c1.5 0 2.6.3 3.5.9s1.3 1.5 1.3 2.5c0 1.6-.7 2.9-2 3.9s-3 1.5-5.2 1.5h-2.2l2.5-8.8zm30.3 26.6c3.4 2.6 8.3 3.9 14.6 3.9 5.4 0 10.2-1 14.3-3.1 4.1-2.1 7.3-5 9.7-8.9 2.3-3.9 3.5-8.1 3.5-12.8S94 8.4 90.6 5.8c-3.4-2.6-8.1-3.9-14.2-3.9C71 1.9 66.2 2.9 62 5c-4.2 2-7.4 5-9.9 8.9-2.4 3.9-3.6 8.2-3.6 12.8s1.7 8.2 5.2 10.8zm10.5-18.8c1.2-2.6 2.7-4.6 4.7-6.1 1.9-1.5 4.1-2.2 6.4-2.2 2.1 0 3.8.6 4.9 1.7 1.1 1.1 1.7 2.7 1.7 4.7 0 2.9-.5 5.6-1.6 8.1s-2.6 4.4-4.5 5.9-4 2.2-6.2 2.2c-4.7 0-7-2.1-7-6.4-.2-2.7.4-5.4 1.6-7.9zm56 22.2 8.9-15.6c2-3.8 3.4-6.8 4.1-9.2-.3 3-.5 5.8-.5 8.5v16.3H149l22.3-38.4h-13.6l-10.7 20c-2.9 5.6-4.4 8.6-4.7 9.1.6-2.8.9-5.6.9-8.3V2.5h-11.8l-11.8 20.3-3.3 6.1-1.4 2.7c.4-1.9.7-5.2.9-9.9l.4-19.3h-13l1.7 38.4h15.3zm76.7 0 2.4-8.5h-16.8l2-7.2h15.6l2.6-8.4h-15.6l1.6-6h16.8l2.3-8.3h-30.5l-10.9 38.4zm52.1 0-1.4-2.5-7.9-13.6c3.3-1.1 5.8-2.6 7.4-4.7s2.5-4.4 2.5-7.1c0-3.5-1.6-6.2-4.7-7.9s-7.7-2.6-13.6-2.6h-13.6l-10.9 38.4h13.7l4-14h2.6l6.9 14h15zm-20.4-21.8h-1.8l2.5-8.8h1.9c1.5 0 2.7.3 3.5.9.8.6 1.2 1.4 1.2 2.5 0 1.7-.7 3.1-2 4-1.3.9-3.1 1.4-5.3 1.4zm58 13.3h-16.8l2-7.2h15.6l2.5-8.4h-15.6l1.7-6h16.7l2.3-8.3h-30.5l-10.8 38.4h30.5zm24.1 8.5c6 0 11.3-1 15.7-2.9 4.4-1.9 7.8-4.7 10.1-8.3S340 21.9 340 17c0-4.6-1.8-8.2-5.3-10.7-3.6-2.5-8.6-3.8-15-3.8H305l-10.9 38.4h16.6zm5.7-30h2.5c2.3 0 4 .6 5.3 1.7 1.3 1.1 1.9 2.8 1.9 5 0 2.9-.6 5.5-1.7 7.8s-2.7 4-4.7 5.2-4.3 1.8-6.9 1.8h-2.4l6-21.5zm57.8 26.7h.3c1.5 1.4 2.9 2.4 4.4 3s3.2.8 5.1.8c3.2 0 6.1-.9 8.8-2.6 2.6-1.7 4.8-4.2 6.4-7.4s2.5-6.4 2.5-9.5c0-3.7-1-6.5-2.9-8.4s-4.7-2.9-8.4-2.9c-1.1 0-2.2.1-3 .3-.9.2-1.6.5-2.3.9-.7.4-1.6 1.1-2.7 2.1h-.4c1.2-2.2 2.3-4.8 3.2-7.9l1.7-6.1h-13.6l-11.6 40.9h10.8l1.7-3.2zm4.7-13.3c.6-1.7 1.5-3 2.5-4s2.2-1.5 3.3-1.5c2 0 3 1.3 3 3.8 0 1.7-.3 3.3-1 5-.7 1.7-1.6 3.1-2.7 4.1-1.1 1-2.2 1.6-3.4 1.6-.9 0-1.6-.3-2.1-1-.4-.7-.7-1.6-.7-2.7.2-1.9.5-3.6 1.1-5.3zm30 20.4c-1.3.6-3 1-5 1-1.5 0-2.8-.1-3.8-.3v8.1c1.5.3 3.3.4 5.4.4 4.3 0 8-.7 10.9-2.2 3-1.4 5.6-3.8 7.8-7l23.6-33.5h-14.6c-5.3 9-8.1 13.8-8.4 14.3-.3.6-.9 2-1.8 4.4h-.3v-2.3l-.1-1.6-1.5-14.8h-13.7l5.7 29.5-.8 1.1c-.9 1.2-2.1 2.2-3.4 2.9z"/>
  <path d="m559.8 90.5-15.3 40.3h32zm191.7 0-15.2 40.3h31.9zm-325.8-5.8v65.7h16.8c10.9 0 19.3-3 25.1-9 5.8-6 8.7-14 8.7-23.8 0-10.2-2.9-18.2-8.8-24-5.8-5.9-14.3-8.8-25.2-8.8h-16.6z" class="st0"/>
  <path fill="#010202" d="M350.2 65.7H376v103.7h-25.8zm-110.3 0v103.7h25.8v-48.7l41 48.7h32.4l-45.8-55 33.8-48.7h-28.4l-33 46.7V65.7zm-183.2 105 32.1-67.6 32.2 67.6h11.1l45.4-105h-27.4L125.9 123 99.2 65.7H78.4L51.8 123 27.4 65.7H0l45.6 105zm133.4-105h25.8v103.7h-25.8zm454.5 103.7h25.8V84.7H708v-19H607v19h37.6zM399.9 65.7v103.7h42.8c19.3 0 34.1-4.6 44.5-13.7 10.4-9.2 15.7-21.8 15.7-37.9 0-15.3-5.1-27.8-15.4-37.5-10.2-9.7-24.2-14.5-41.9-14.5h-45.7zm76.4 51.9c0 9.8-2.9 17.8-8.7 23.8-5.8 6-14.2 9-25.1 9h-16.8V84.7h16.6c11 0 19.4 2.9 25.2 8.8 5.9 5.8 8.8 13.9 8.8 24.1zm245.5 51.8 7.7-20.5h46.4l8.5 20.5h27.8l-46-103.7h-30l-41.8 103.7h27.4zm29.7-78.9 16.7 40.3h-31.9l15.2-40.3zM530 169.4l7.7-20.5h46.4l8.5 20.5h27.8l-46-103.7h-30l-41.8 103.7H530zm29.8-78.9 16.7 40.3h-31.9l15.2-40.3z"/>
  <path fill="#991915" d="M0 177.6h223.6v3.6H0z"/>
  <path d="M227.2 177.6h160.6v3.6H227.2z" class="st3"/>
  <path fill="#02679a" d="M391.6 177.6h237.1v3.6H391.6z"/>
  <path d="M631.8 177.6h180.4v3.6H631.8z" class="st3"/>
<script xmlns=""/></svg>